<svg xmlns="http://www.w3.org/2000/svg" preserveAspectRatio="none" version="1.1" viewBox="0 0 695 166"><defs><linearGradient id="linearGradient-1" x1=".258%" x2="101.456%" y1="49.75%" y2="-38.915%"><stop offset="0%" stop-color="#3023AE"/><stop offset="26.78%" stop-color="#53A0FE"/><stop offset="100%" stop-color="#B4ED50"/></linearGradient><linearGradient id="linearGradient-2" x1="49.676%" x2="49.945%" y1="-10.322%" y2="81.327%"><stop offset="2.414%" stop-color="#3E5FB2" stop-opacity=".688"/><stop offset="39.571%" stop-color="#3D5FB2" stop-opacity=".884"/><stop offset="53.051%" stop-color="#3D5EAF" stop-opacity=".89"/><stop offset="97.13%" stop-color="#30467C"/></linearGradient></defs><g id="Page-1" fill="none" fill-rule="evenodd" stroke="none" stroke-width="1"><g id="Waves"><path id="Rectangle" fill="url(#linearGradient-1)" d="M-5.68434189e-14,85 C-5.68434189e-14,85 57.1357069,26.1717938 127,35 C167,40.0544883 377.739216,127.011735 480,124 C582.260784,120.988265 695,41 695,41 L695,200 L-5.68434189e-14,200 L-5.68434189e-14,85 Z" opacity=".829"/><path id="Rectangle" fill="url(#linearGradient-2)" d="M-1.13686838e-13,85 C-1.13686838e-13,85 98.1357069,-7.82820623 168,1 C208,6.05448826 377.739216,127.011735 480,124 C582.260784,120.988265 695,41 695,41 L695,200 L-1.13686838e-13,200 L-1.13686838e-13,85 Z" transform="translate(347.500000, 100.203995) scale(-1, 1) translate(-347.500000, -100.203995)"/></g></g></svg>